<svg width="141" height="10" viewBox="0 0 141 10" fill="none" xmlns="http://www.w3.org/2000/svg">
<path d="M69.8607 7.79823C71.645 7.69511 73.848 7.41561 75.6131 7.53198C75.9648 7.20065 76.5308 7.18778 77.0967 7.17493L77.1383 7.6225L77.6307 7.52786C77.8577 7.70003 77.2982 7.63973 77.6115 7.74735L77.7969 7.47195C77.8641 7.62688 78.996 7.60116 78.2447 7.88943L80.016 7.93263C80.4158 7.97571 80.2079 7.58408 80.6811 7.70891C80.7483 7.86385 80.5149 7.76485 80.582 7.91978C81.9218 8.28571 82.104 7.12378 83.2967 7.32616L83.2103 7.39071C83.3829 7.26163 83.7827 7.3047 83.7891 7.23155C83.6675 6.77536 83.61 7.43378 83.2295 7.17123C83.2614 6.80545 83.7282 7.00345 83.6739 6.7022C83.9873 6.80981 84.1662 6.60756 84.4061 6.63341C84.8666 6.90458 85.4453 6.74541 85.7459 6.99935C85.9185 6.87026 86.1903 6.53031 86.6763 6.50885C86.9705 6.83593 86.5709 6.79286 87.0441 6.91771L87.1431 6.70685C87.5429 6.74991 87.4566 6.81446 87.4502 6.88763C87.8499 6.9307 87.7955 6.62945 88.2687 6.7543L88.0097 6.94793C88.3359 6.90923 88.4958 6.92646 88.9754 6.97815C88.9626 7.12446 88.8027 7.10723 88.6493 7.01685C88.9434 7.34395 89.1417 6.92221 89.2215 6.93083C89.148 6.84906 88.8282 6.8146 89.0073 6.61235C89.2472 6.6382 89.5125 6.37141 89.7332 6.61673L89.4741 6.81036C89.973 6.64258 89.7395 6.54356 90.3726 6.68565C90.3726 6.68565 90.3663 6.75881 90.3599 6.83196C90.7052 6.5738 91.2456 6.85356 91.8051 6.91388L91.7189 6.97841C91.965 6.9311 92.0642 6.72025 92.2241 6.73748C91.9107 6.62985 91.997 6.56531 91.9362 6.33721C92.3903 6.68155 92.6141 5.96718 93.2408 6.18243C93.228 6.32875 93.0554 6.45783 92.9082 6.29428C92.6364 6.63423 92.6109 6.92686 92.1921 7.10326C92.4383 7.05595 92.7644 7.01725 92.6717 7.15496L92.7836 6.79778C92.9435 6.81501 93.0234 6.82363 93.1833 6.84085C93.2823 6.63 92.889 6.51376 93.228 6.32875C93.6405 6.2255 93.4422 6.64721 93.5349 6.50951C94.1073 6.4235 93.8067 6.16956 94.28 6.29441C94.2 6.2858 94.1138 6.35035 94.0338 6.34173C94.4271 6.45796 95.0058 6.2988 95.1273 6.75498C95.0411 6.81951 95.0283 6.96583 94.8684 6.94861L94.8747 6.87545C94.4495 7.12501 95.201 6.83675 95.0891 7.19393C94.8684 6.94861 95.4279 7.00891 95.6678 7.03476L95.607 6.80666C96.4766 6.08806 95.5623 7.31878 96.3744 7.25861C96.8732 7.09081 96.221 7.16821 96.4736 7.04775C96.7934 7.08221 96.9341 7.31891 97.4264 7.22428C97.58 7.31468 97.8869 7.49545 97.8614 7.78808C98.1939 7.67623 98.8142 7.96463 98.9997 7.68921C98.4593 7.40943 98.4945 7.93016 97.8806 7.56861L98.066 7.2932C98.4656 7.33628 99.038 7.25026 99.3513 7.35788C99.2778 7.27611 99.2841 7.20295 99.2841 7.20295C99.8565 7.11693 100.042 6.84153 100.675 6.98361C100.736 7.2117 100.416 7.17725 100.176 7.1514C100.563 7.34078 100.576 7.19446 101.129 7.32793C101.19 7.55603 100.73 7.28486 100.63 7.49571L101.276 7.49148C101.276 7.49148 101.276 7.49148 101.27 7.56465C101.382 7.20746 101.75 7.61633 102.162 7.51308C103.128 7.54331 103.246 7.11296 103.837 6.80748C103.991 6.89786 103.985 6.97103 103.972 7.11735C103.745 6.94518 103.812 7.10011 103.725 7.16466C104.052 7.12596 104.419 7.53483 104.247 7.66391C104.739 7.56928 104.1 7.50036 104.352 7.3799L105.072 7.45743C105.005 7.3025 104.771 7.2035 105.104 7.09163C105.43 7.05293 105.583 7.14333 105.989 7.11325C105.903 7.17778 106.124 7.42311 105.804 7.38865C105.957 7.47903 106.277 7.5135 106.456 7.31125C105.989 7.11325 107.195 7.1693 106.894 6.91536L107.361 7.11338C107.281 7.10476 107.268 7.25108 107.115 7.1607C107.249 7.47056 107.441 7.122 107.607 7.06606C107.761 7.15645 108.161 7.19953 108.154 7.27268C108.32 7.21676 108.634 7.32438 108.707 7.40615C108.953 7.35883 108.72 7.25983 108.813 7.12213L109.532 7.19966C109.599 7.3546 109.641 7.80216 109.475 7.8581C109.727 7.73761 109.593 7.42775 109.993 7.47083C109.727 7.73761 110.533 7.75061 110.181 8.08195C110.402 8.32726 111.048 8.32303 111.374 8.28433C111.633 8.0907 110.987 8.09493 111.006 7.87546C111.978 7.83251 112.116 7.1827 112.829 7.3334L112.675 7.24301C113.168 7.14838 113.088 7.13976 113.347 6.94613C113.241 7.23015 113.836 7.81118 114.562 7.81556C114.655 7.67786 114.188 7.47985 114.287 7.269L114.773 7.24751C114.773 7.24751 114.767 7.32068 114.68 7.38523C115.173 7.2906 115.528 7.84578 115.64 7.4886L116.081 7.97925L115.774 7.79846C115.866 7.66076 116.352 7.6393 116.439 7.57475C116.931 7.48011 117.165 7.57913 117.385 7.82445C117.318 7.66951 117.098 7.4242 117.504 7.39411C117.459 7.90621 118.37 7.6352 118.345 7.92783C118.505 7.94505 118.811 8.12583 118.831 7.90636L118.805 8.199C118.843 7.76003 119.483 7.82896 119.889 7.79888C119.758 8.3755 120.375 7.7774 120.57 8.31536C120.682 7.95818 121.382 8.2552 121.494 7.89801C121.814 7.93248 121.782 8.29826 121.856 8.38L122.028 8.25095C122.175 8.4145 122.888 8.56516 123.202 8.67283L123.553 8.3415L123.774 8.58683C123.86 8.52233 124.107 8.475 123.959 8.3114L124.119 8.32861C124.151 7.96283 124.365 8.28131 124.784 8.10491C124.858 8.18668 124.852 8.25983 124.765 8.32438C124.925 8.34166 124.826 8.5525 124.98 8.64283C124.826 8.5525 125.756 8.06196 125.216 7.78218C125.229 7.63586 125.481 7.5154 125.715 7.6144L125.843 7.99743L126.114 7.65748C126.441 7.61878 126.501 7.84686 126.815 7.95448C126.575 7.92865 126.198 8.55266 126.837 8.6215C126.511 8.66016 126.338 8.78933 126.092 8.83666C126.252 8.85383 126.326 8.93566 126.073 9.05616C126.566 8.9615 126.252 8.85383 126.738 8.83233C126.713 9.125 126.786 9.20683 127.253 9.40483L126.952 9.15083C126.959 9.07766 126.959 9.07766 127.039 9.08633C126.879 9.06916 126.885 8.996 126.898 8.84966C126.978 8.85816 127.49 8.54416 127.557 8.699C127.115 8.20841 128.468 8.428 128.174 8.10093C128.26 8.0364 128.586 7.9977 128.647 8.22578C128.228 8.40216 128.935 8.626 128.836 8.83683C129.002 8.781 128.535 8.583 128.708 8.45383C128.948 8.47966 129.095 8.64333 129.248 8.73366L129.162 8.79816L129.549 8.98766C129.642 8.84983 129.168 8.725 129.581 8.62183C129.654 8.7035 130.06 8.6735 130.054 8.74666C129.875 8.94883 129.929 9.25016 129.69 9.22433C129.929 9.25016 130.735 9.26316 130.441 8.936L130.761 8.9705C130.614 8.807 130.073 8.52716 130.713 8.59616L130.706 8.66933L131.125 8.49283L131.272 8.65633C131.279 8.58316 131.365 8.51866 131.525 8.536C131.598 8.61766 131.672 8.6995 131.666 8.77266C132.145 8.82433 132.078 8.66933 132.171 8.53166C132.411 8.5575 132.484 8.63933 132.391 8.777C132.705 8.88466 133.351 8.88033 133.578 9.0525C134.07 8.958 133.504 8.97083 133.763 8.77716C134.118 9.33233 135.263 9.16033 135.989 9.16466C135.787 8.69983 136.235 9.11733 136.347 8.76016C136.174 8.88933 137.034 9.2035 136.382 9.28083L136.788 9.25083C137.009 9.49616 136.129 9.40133 136.503 9.73716C136.983 9.78883 137.268 9.3025 137.814 9.50916C137.629 9.7845 138.221 9.479 138.035 9.7545C137.942 9.89216 137.789 9.80183 137.629 9.7845L137.703 9.86633C138.655 10.0428 138.054 9.535 138.553 9.36716C139.199 9.363 139.007 9.7115 138.994 9.85783C139.068 9.93966 139.394 9.90083 139.56 9.845C139.141 10.0213 138.94 9.55666 139.119 9.35433C139.327 9.746 139.998 9.44916 140.171 9.32C139.324 8.8595 139.611 9.25966 138.77 8.726C138.678 8.86366 138.652 9.15633 138.185 8.95833C138.518 8.8465 138.204 8.73883 138.125 8.73016C138.185 8.95833 137.798 8.769 137.632 8.82483C137.485 8.66133 137.99 8.42033 137.517 8.29551L137.399 8.72583C137.245 8.6355 137.511 8.36866 137.098 8.472C137.357 8.2783 137.05 8.09751 137.616 8.08466C137.008 7.64995 136.558 8.19215 136.065 8.28676C136.145 8.29538 136.152 8.22223 136.158 8.14906C136.065 8.28676 135.825 8.26093 135.666 8.2437C135.352 8.13608 135.924 8.05006 135.857 7.89513L135.298 7.83483C135.132 7.89076 134.972 7.87353 134.978 7.80036C135.151 7.67128 135.243 7.53358 135.336 7.39588L134.751 7.6282C134.844 7.4905 134.297 7.28388 134.703 7.2538L133.817 7.2322L133.763 6.93095C133.517 6.97825 133.51 7.05141 133.75 7.07726C133.437 6.96965 132.426 7.45153 132.637 6.8835C131.979 7.03405 131.745 6.93505 130.853 6.9866C131.518 6.76288 130.166 6.54326 130.818 6.46586C130.431 6.27648 130.319 6.63366 129.993 6.67236C129.686 6.49158 129.871 6.21618 130.198 6.17748L129.785 6.28071L129.791 6.20756L129.459 6.31941C129.152 6.13865 129.405 6.01816 129.091 5.91055L128.986 6.19456L128.807 6.39681C128.874 6.55175 128.714 6.53451 128.388 6.57321L128.394 6.50006L128.068 6.53876C128.401 6.4269 127.755 6.43115 127.927 6.30205C127.688 6.27621 127.688 6.27621 127.202 6.29768L127.262 6.52576C126.61 6.60316 127.288 6.23313 126.728 6.17283L126.709 6.3923C126.022 5.94898 125.491 6.48256 124.95 6.20278C125.277 6.16408 125.216 5.93598 125.209 6.00915C124.723 6.03061 124.01 5.87991 123.505 6.12086C123.371 5.811 123.297 5.72923 122.83 5.53121C122.511 5.49676 122.424 5.5613 122.332 5.69901C122.025 5.51823 121.366 5.6688 121.305 5.4407C121.212 5.5784 120.985 5.40623 120.813 5.53533L120.912 5.32446L120.893 5.54395C120.291 5.03606 119.828 5.72458 119.22 5.28986L119.307 5.22533L119.061 5.27265C119.153 5.13493 119.24 5.0704 119.246 4.99723L118.047 4.86801L118.274 5.04016C118.034 5.01433 117.855 5.21658 117.542 5.10895C118.053 4.79485 117.142 5.06588 117.081 4.8378L117.327 4.79048C117.008 4.75601 117.008 4.75601 116.988 4.9755C116.502 4.99696 116.701 4.57523 116.282 4.75165L116.602 4.7861C116.669 4.94103 116.496 5.07011 116.256 5.04428C116.176 5.03566 116.109 4.88073 116.189 4.88935C115.863 4.92805 115.31 4.79458 115.143 4.85051C114.99 4.76011 115.003 4.6138 115.169 4.55786C114.351 4.6912 114.849 4.52341 114.037 4.58358L114.05 4.43726L113.797 4.55773L113.417 4.29518L113.564 4.45873C113.324 4.43288 113.151 4.56198 112.838 4.45436L112.937 4.2435C112.205 4.31228 112.163 3.86471 111.418 4.07981C111.338 4.0712 111.505 4.01526 111.511 3.94211C110.846 4.16583 111.057 3.59778 110.385 3.89466C110.392 3.8215 110.398 3.74835 110.405 3.67518L110.072 3.78705L110.091 3.56756L109.82 3.90751L109.679 3.67081L109.666 3.81713C109.385 3.34371 108.953 3.66643 108.505 3.24895L108.56 3.5502C107.463 4.09663 106.107 2.9905 104.876 3.22708L104.895 3.0076L104.39 3.24855C104.083 3.06776 104.569 3.0463 104.502 2.89136C103.93 2.97738 104.23 3.23131 103.584 3.23555C103.277 3.05478 103.683 3.0247 103.85 2.96876C103.197 3.04616 102.299 3.17088 101.912 2.98148L101.906 3.05465C101.407 3.22243 100.854 3.08896 100.448 3.11905C100.46 2.97273 100.54 2.98135 100.7 2.99858C100.54 2.98135 100.307 2.88235 100.134 3.01143L100.313 2.80918C99.9935 2.77473 99.2549 2.91666 99.2004 2.61541C99.2741 2.69718 99.2549 2.91666 98.9351 2.8822C98.8071 2.49918 98.1165 3.01553 97.6562 2.74436C97.7424 2.67981 98.0685 2.64113 97.9886 2.63251C97.7552 2.5335 97.5026 2.65398 97.3299 2.78306L97.4226 2.64536L96.278 2.8174C96.0701 2.42575 95.1525 2.76995 95.2515 2.55908C94.8519 2.516 95.5586 2.73985 95.0726 2.76133C94.9254 2.59778 94.5866 2.7828 94.6056 2.56331L94.6856 2.57193L94.3595 2.61063L94.6184 2.417C94.2923 2.4557 94.1133 2.65795 94.0941 2.87741C93.7871 2.69665 93.3747 2.79988 93.2339 2.56318L93.3203 2.49863C92.5082 2.55881 92.0124 1.76691 91.3346 2.13695C91.2546 2.12833 91.2611 2.05518 91.4208 2.0724L90.9413 2.02071L91.0404 1.80985L90.209 2.0895L90.2219 1.94318C89.6622 1.88288 88.7765 1.86126 88.1243 1.93866L88.2105 1.87413C87.4719 2.01606 87.4976 1.72343 86.9187 1.8826C86.9187 1.8826 86.9252 1.80945 87.0051 1.81806L86.5191 1.83953L86.4584 1.61143C86.1131 1.86961 85.3583 1.27135 85.5854 1.44351C85.3328 1.56398 85.0002 1.67585 84.9075 1.81355C84.3416 1.8264 84.7604 1.65 84.447 1.54238C84.0474 1.49931 83.9483 1.71016 83.3951 1.57671L83.4078 1.43038C83.1617 1.4777 82.9953 1.53363 82.6692 1.57233L82.7556 1.50778C82.1705 1.74011 82.0617 1.13761 81.6108 1.67981C81.3774 1.58081 80.8914 1.60228 80.9106 1.3828C80.172 1.52475 79.5996 1.61076 78.9474 1.68816C78.8994 1.31375 78.861 1.7527 78.4005 1.48153L78.4614 1.70963C77.4893 1.75256 76.2486 1.17578 75.1902 1.28326L75.1295 1.05516L74.9504 1.25741C73.7514 1.12818 72.2261 1.03766 71.2605 1.00745C70.848 1.11068 70.4228 1.36025 69.9431 1.30856L70.023 1.31716C69.1245 1.44188 68.2325 1.49343 67.2732 1.39006C67.3596 1.32551 67.206 1.23513 67.3724 1.1792C67.187 1.4546 66.8064 1.19205 66.6465 1.17483L66.8735 1.34698C66.6146 1.54061 66.2276 1.35123 66.0806 1.18768L65.6553 1.43723L65.5817 1.35546L65.489 1.49316L65.2748 1.17468C65.1884 1.23923 64.6161 1.32525 64.4307 1.60065C64.2836 1.4371 63.8838 1.39403 64.2164 1.28216L62.6847 1.2648L62.9183 1.36381C62.979 1.5919 62.4866 1.68653 62.2532 1.58753C62.592 1.40251 62.2787 1.29488 62.1317 1.13135C61.959 1.26043 62.3586 1.3035 62.186 1.4326C61.9334 1.55306 61.3611 1.63908 61.2075 1.54868L61.3739 1.49276C61.0413 1.60461 60.8334 1.21298 60.5073 1.25168C60.1683 1.4367 59.9414 1.26453 60.0693 1.64756C59.5833 1.66903 59.855 1.32908 59.6951 1.31185C59.5161 1.5141 58.803 1.3634 58.7358 1.20846C58.5312 1.70335 57.4632 0.997463 57.425 1.43643L57.0444 1.17386C57.0317 1.3202 57.0125 1.53966 56.6799 1.65153C56.3666 1.5439 56.4657 1.33305 56.3186 1.1695L56.1204 1.59121C54.4671 1.11766 52.2578 1.47033 50.432 1.12588C49.6134 1.2592 48.6285 1.44846 47.663 1.41825L47.7429 1.42686L46.7837 1.32348L47.4903 1.54733C47.324 1.60326 47.1513 1.73235 46.9115 1.7065C45.8787 1.52135 44.4398 1.36628 43.2089 1.60285C42.4319 2.18375 42.6012 1.16813 41.8371 1.60271C41.9234 1.53816 41.9298 1.46501 42.0161 1.40046C41.1912 1.60695 40.6988 1.70158 39.861 2.05438C39.9057 1.54228 39.2951 2.06725 39.4007 1.78321L39.3815 2.0027C39.1481 1.9037 38.7483 1.86061 38.7611 1.7143L38.4158 1.97248L38.355 1.74438C37.869 1.76585 36.8043 1.9465 36.5165 1.54625C35.2727 1.92913 33.335 1.94185 31.8033 1.92448C31.6244 2.12673 31.1382 2.1482 30.8121 2.1869L30.4316 1.92435C30.099 2.03621 29.7474 2.36755 29.3541 2.25131L29.3604 2.17815C29.028 2.29001 28.641 2.10061 28.2957 2.3588C27.8897 2.38888 27.4964 2.27265 27.6018 1.98861C27.6435 2.43618 26.7161 1.96701 26.7161 1.96701C26.7161 1.96701 21.549 2.00093 15.7775 2.48665C12.9286 2.7704 9.91977 3.03693 7.29787 3.49283C4.67596 3.94875 2.5273 4.5295 1.41785 5.22226C1.31876 5.43311 0.819965 5.60091 1.04062 5.84623C0.775262 6.11301 0.567377 5.72138 0.548218 5.94085C1.02146 6.0657 0.497128 6.52613 0.963988 6.72413L0.63146 6.836C0.618688 6.98231 1.05031 6.6596 0.951215 6.87045L0.983147 6.50466C1.22296 6.5305 1.37645 6.6209 1.52995 6.71128C1.70897 6.50903 1.83362 6.00553 2.38681 6.139L2.22055 6.19493C2.62663 6.16485 2.52113 6.44886 2.68102 6.4661L2.60108 6.45748L3.06794 6.65548C2.75456 6.54786 2.31656 6.94375 2.56276 6.89643C3.12233 6.95673 2.40926 6.80605 2.82173 6.7028C3.06794 6.65548 3.04877 6.87496 3.03601 7.02128L3.44209 6.9912C3.42931 7.13751 3.11594 7.0299 3.34298 7.20206L3.84817 6.96111C4.04966 7.42591 4.43966 6.65561 4.7275 7.05588C4.30864 7.23228 4.79465 7.21081 4.78189 7.35713L5.76031 7.24103C5.83387 7.3228 5.50133 7.43466 5.66759 7.37873C5.90102 7.47773 5.92019 7.25826 6.08645 7.20233C6.16 7.2841 6.81868 7.13355 6.87307 7.4348C7.58612 7.58548 7.07126 7.01306 7.78432 7.16376C7.93143 7.32731 7.29191 7.2584 7.5989 7.43916L8.18402 7.20685C8.17763 7.28 8.07853 7.49086 7.83871 7.46501C9.61014 7.50823 10.739 8.44216 12.3025 8.09376C12.5296 8.26593 12.1299 8.22286 12.0308 8.43366C13.1946 8.04221 13.7766 8.7695 14.7551 8.6535L14.7678 8.50716C16.2611 8.9635 17.8374 8.46866 19.4363 8.641L19.2027 8.542C19.3818 8.33983 19.7079 8.30106 19.9605 8.1806C20.034 8.26236 19.8423 8.611 20.2547 8.50766C20.1812 8.426 19.9413 8.4 20.0277 8.3355C21.4475 8.71 24.2165 8.41766 26.4675 8.51266C29.4027 8.16431 32.693 8.37116 35.6219 8.09608C35.2158 8.12616 35.334 7.69583 35.6538 7.73028C36.642 8.4275 37.2846 7.53678 38.2119 8.00596C39.9353 7.67476 41.4957 8.28601 43.0049 7.63633L43.0656 7.86443C43.2992 7.96343 43.3919 7.82573 43.638 7.77841L43.6316 7.85156C44.1912 7.91188 44.9363 7.69678 45.2559 7.73123L45.2751 7.51176C45.6012 7.47306 45.5022 7.68391 45.8346 7.57206L45.8219 7.71838L46.2471 7.46881C46.2089 7.90776 47.2128 7.49903 47.5197 7.67981C47.9322 7.57658 48.8372 7.3787 49.4766 7.44761C49.6173 7.68433 50.4296 7.62416 50.9828 7.75761C52.041 7.65015 53.4992 7.58573 54.8645 7.65903L54.81 7.35778L55.1363 7.31908C55.1298 7.39223 55.2098 7.40085 55.1234 7.4654C55.4177 7.7925 55.9419 7.33206 56.2425 7.586C56.0219 7.34068 56.0028 7.56016 55.763 7.53431C55.4496 7.4267 55.715 7.1599 56.1083 7.27613L56.1018 7.3493L56.3544 7.22883C56.4152 7.45691 56.6487 7.55591 56.7095 7.78401C57.8477 7.68515 58.6055 7.32373 59.8046 7.45295C59.7054 7.66381 60.6167 7.39278 60.4185 7.8145C61.1571 7.67256 60.2843 7.50463 60.5559 7.16468C60.7158 7.18191 60.9684 7.06145 61.0356 7.21638C60.9429 7.35408 61.1763 7.45308 61.0101 7.50901L61.4961 7.48755C61.5761 7.49616 61.4097 7.55208 61.4034 7.62525C62.3946 7.36283 63.1556 7.88793 63.9806 7.68145C64.0733 7.54375 63.6608 7.64698 63.6735 7.50066C64.5048 7.22103 64.4538 7.8063 65.2851 7.52665L65.3714 7.4621C65.624 7.34163 65.7231 7.13076 66.1899 7.32878C66.2508 7.55686 65.8511 7.5138 65.5985 7.63426C65.9183 7.66873 66.6504 7.59995 66.4298 7.35463C66.7623 7.24276 66.903 7.47946 67.1364 7.57848C67.1429 7.50531 66.8295 7.3977 67.0022 7.26861C67.4754 7.39346 68.2812 7.40645 68.8472 7.3936C68.8407 7.46675 68.9142 7.54853 68.8344 7.53991C69.2595 7.29035 69.2148 7.80246 69.8607 7.79823Z" fill="#2C7BF6"/>
</svg>
